<svg xmlns="http://www.w3.org/2000/svg" viewBox="0 0 1200 630" width="1200" height="630" role="img" aria-label="Frequently asked questions">
  <defs>
    <linearGradient id="g" x1="0" y1="0" x2="1" y2="1">
      <stop offset="0" stop-color="#4C7BF6"/><stop offset="1" stop-color="#101B3C"/>
    </linearGradient>
    <radialGradient id="v" cx="30%" cy="18%" r="85%">
      <stop offset="0" stop-color="#fff" stop-opacity=".22"/><stop offset="1" stop-color="#000" stop-opacity=".38"/>
    </radialGradient>
    <pattern id="grid" width="48" height="48" patternUnits="userSpaceOnUse">
      <path d="M48 0H0v48" fill="none" stroke="#000" stroke-opacity=".14" stroke-width="1"/>
    </pattern>
  </defs>
  <rect width="1200" height="630" fill="url(#g)"/>
  <rect width="1200" height="630" fill="url(#grid)"/>
  <rect width="1200" height="630" fill="url(#v)"/>
  <rect x="210" y="120" width="780" height="78" rx="14" fill="rgba(255,255,255,.12)" stroke="rgba(255,255,255,.45)" stroke-width="2"/>
  <rect x="250" y="150" width="300" height="14" rx="7" fill="rgba(255,255,255,.6)"/>
  <path d="M916 150l24 24 24-24" fill="none" stroke="rgba(255,255,255,.55)" stroke-width="7" stroke-linecap="round" stroke-linejoin="round"/>
  <rect x="210" y="222" width="780" height="200" rx="14" fill="rgba(255,255,255,.2)" stroke="rgba(255,255,255,.7)" stroke-width="3"/>
  <rect x="250" y="252" width="380" height="16" rx="8" fill="rgba(255,255,255,.92)"/>
  <path d="M916 268l24-24 24 24" fill="none" stroke="rgba(255,255,255,.9)" stroke-width="7" stroke-linecap="round" stroke-linejoin="round"/>
  <rect x="250" y="304" width="640" height="11" rx="5" fill="rgba(255,255,255,.4)"/>
  <rect x="250" y="332" width="560" height="11" rx="5" fill="rgba(255,255,255,.32)"/>
  <rect x="250" y="360" width="600" height="11" rx="5" fill="rgba(255,255,255,.32)"/>
  <rect x="210" y="446" width="780" height="78" rx="14" fill="rgba(255,255,255,.12)" stroke="rgba(255,255,255,.45)" stroke-width="2"/>
  <rect x="250" y="476" width="260" height="14" rx="7" fill="rgba(255,255,255,.6)"/>
  <path d="M916 476l24 24 24-24" fill="none" stroke="rgba(255,255,255,.55)" stroke-width="7" stroke-linecap="round" stroke-linejoin="round"/>
</svg>
