<svg xmlns="http://www.w3.org/2000/svg" viewBox="0 0 1200 630" width="1200" height="630" role="img" aria-label="Small Business Web Design">
  <defs>
    <linearGradient id="g" x1="0" y1="0" x2="1" y2="1">
      <stop offset="0" stop-color="#7CD4A0"/><stop offset="1" stop-color="#0B4A2E"/>
    </linearGradient>
    <radialGradient id="v" cx="30%" cy="18%" r="85%">
      <stop offset="0" stop-color="#fff" stop-opacity=".22"/><stop offset="1" stop-color="#000" stop-opacity=".38"/>
    </radialGradient>
    <pattern id="grid" width="48" height="48" patternUnits="userSpaceOnUse">
      <path d="M48 0H0v48" fill="none" stroke="#000" stroke-opacity=".14" stroke-width="1"/>
    </pattern>
  </defs>
  <rect width="1200" height="630" fill="url(#g)"/>
  <rect width="1200" height="630" fill="url(#grid)"/>
  <rect width="1200" height="630" fill="url(#v)"/>
  
  <rect x="360" y="150" width="300" height="330" rx="16" fill="rgba(255,255,255,.10)" stroke="rgba(255,255,255,.5)" stroke-width="2"/>
  <rect x="392" y="186" width="150" height="16" rx="5" fill="rgba(255,255,255,.8)"/>
  <rect x="392" y="216" width="220" height="10" rx="5" fill="rgba(255,255,255,.3)"/>
  <rect x="392" y="238" width="190" height="10" rx="5" fill="rgba(255,255,255,.24)"/>
  <rect x="392" y="284" width="236" height="1" fill="rgba(255,255,255,.25)"/>
  <rect x="392" y="306" width="120" height="10" rx="5" fill="rgba(255,255,255,.3)"/>
  <rect x="392" y="330" width="160" height="10" rx="5" fill="rgba(255,255,255,.24)"/>
  <rect x="392" y="392" width="128" height="36" rx="18" fill="rgba(255,255,255,.9)"/>
  <rect x="712" y="188" width="150" height="260" rx="22" fill="rgba(255,255,255,.13)" stroke="rgba(255,255,255,.55)" stroke-width="2"/>
  <rect x="760" y="204" width="54" height="6" rx="3" fill="rgba(255,255,255,.45)"/>
  <rect x="734" y="238" width="106" height="12" rx="4" fill="rgba(255,255,255,.75)"/>
  <rect x="734" y="266" width="80" height="8" rx="4" fill="rgba(255,255,255,.3)"/>
  <rect x="734" y="396" width="106" height="30" rx="15" fill="rgba(255,255,255,.85)"/>
</svg>
